<mxfile host="app.diagrams.net" modified="2020-08-07T08:46:21.892Z" agent="5.0 (Macintosh; Intel Mac OS X 10_15_5) AppleWebKit/537.36 (KHTML, like Gecko) Chrome/84.0.4147.105 Safari/537.36" etag="qOyY_i2ej16r33kj7-Vd" version="13.5.8" type="github">
  <diagram id="Rzkw92FRY_8dxufVZBib" name="Page-1">
    <mxGraphModel dx="2066" dy="1105" grid="1" gridSize="10" guides="1" tooltips="1" connect="1" arrows="1" fold="1" page="1" pageScale="1" pageWidth="827" pageHeight="1169" math="0" shadow="0">
      <root>
        <mxCell id="0" />
        <mxCell id="1" parent="0" />
        <mxCell id="A7cCLCQ-PDm3brCIbgIA-1" value="" style="rounded=0;whiteSpace=wrap;html=1;" vertex="1" parent="1">
          <mxGeometry x="470" y="240" width="120" height="300" as="geometry" />
        </mxCell>
        <mxCell id="A7cCLCQ-PDm3brCIbgIA-2" value="Process 1" style="rounded=0;whiteSpace=wrap;html=1;fillColor=#dae8fc;strokeColor=#6c8ebf;" vertex="1" parent="1">
          <mxGeometry x="485" y="260" width="90" height="80" as="geometry" />
        </mxCell>
        <mxCell id="A7cCLCQ-PDm3brCIbgIA-3" style="edgeStyle=orthogonalEdgeStyle;rounded=0;orthogonalLoop=1;jettySize=auto;html=1;entryX=1;entryY=0.5;entryDx=0;entryDy=0;curved=1;exitX=1;exitY=0.5;exitDx=0;exitDy=0;strokeWidth=2;strokeColor=#FF0000;" edge="1" parent="1" source="A7cCLCQ-PDm3brCIbgIA-4" target="A7cCLCQ-PDm3brCIbgIA-6">
          <mxGeometry relative="1" as="geometry" />
        </mxCell>
        <mxCell id="A7cCLCQ-PDm3brCIbgIA-4" value="Process 2" style="rounded=0;whiteSpace=wrap;html=1;fillColor=#d5e8d4;strokeColor=#82b366;" vertex="1" parent="1">
          <mxGeometry x="485" y="360" width="90" height="80" as="geometry" />
        </mxCell>
        <mxCell id="A7cCLCQ-PDm3brCIbgIA-5" style="edgeStyle=orthogonalEdgeStyle;curved=1;rounded=0;orthogonalLoop=1;jettySize=auto;html=1;entryX=1;entryY=0.5;entryDx=0;entryDy=0;strokeColor=#FF0000;strokeWidth=2;exitX=1;exitY=0.75;exitDx=0;exitDy=0;" edge="1" parent="1" target="A7cCLCQ-PDm3brCIbgIA-2" source="A7cCLCQ-PDm3brCIbgIA-6">
          <mxGeometry relative="1" as="geometry">
            <mxPoint x="580" y="380" as="sourcePoint" />
            <Array as="points">
              <mxPoint x="590" y="540" />
              <mxPoint x="640" y="540" />
              <mxPoint x="640" y="300" />
            </Array>
          </mxGeometry>
        </mxCell>
        <mxCell id="A7cCLCQ-PDm3brCIbgIA-6" value="Shared&amp;nbsp;&lt;br&gt;Memory" style="rounded=0;whiteSpace=wrap;html=1;fillColor=#e1d5e7;strokeColor=#9673a6;" vertex="1" parent="1">
          <mxGeometry x="515" y="510" width="75" height="30" as="geometry" />
        </mxCell>
        <mxCell id="A7cCLCQ-PDm3brCIbgIA-7" value="" style="endArrow=none;html=1;entryX=1;entryY=0.75;entryDx=0;entryDy=0;exitX=0;exitY=0.75;exitDx=0;exitDy=0;" edge="1" parent="1" source="A7cCLCQ-PDm3brCIbgIA-1" target="A7cCLCQ-PDm3brCIbgIA-1">
          <mxGeometry width="50" height="50" relative="1" as="geometry">
            <mxPoint x="310" y="480" as="sourcePoint" />
            <mxPoint x="360" y="430" as="targetPoint" />
          </mxGeometry>
        </mxCell>
        <mxCell id="A7cCLCQ-PDm3brCIbgIA-9" value="&lt;font style=&quot;font-size: 14px&quot;&gt;kernel&lt;/font&gt;" style="text;html=1;strokeColor=none;fillColor=none;align=center;verticalAlign=middle;whiteSpace=wrap;rounded=0;" vertex="1" parent="1">
          <mxGeometry x="510" y="480" width="40" height="20" as="geometry" />
        </mxCell>
      </root>
    </mxGraphModel>
  </diagram>
</mxfile>
